:SAMPLES-PER-SECOND 30
:FULLY-SPECIFIED
:DEGREES
337
root  -8.62445 38.2129 9.45858 -176.23 22.9198 179.32
RightUpLeg  -10.9956 -1.9671 -17.3268
RightLeg  28.6162 -4.59925 -2.94623
RightFoot  -3.66082 -2.07307 29.8811
RightToes  2.32829e-010 0 -3.6325e-017
Spine  13.0928 2.9484 -4.34469
Spine1  17.9317 4.62736 -5.87889
HEad  -16.4639 23.1582 -14.4994
LeftShoulder1  0.555163 0.880096 -14.24
LeftArm  16.8912 10.3918 -40.23
LeftForeArm  127.674 -75.0512 -136.191
LeftHand  -1.37717 -3.31103 18.5006
RightShoulder  0.951501 1.71868 11.0928
RightArm  -8.58495 -5.01516 53.4937
RightForeArm  81.0967 79.2563 94.553
RightHand  -1.61906 4.8319 -18.521
LeftUpLeg  -23.8633 -12.564 7.78859
LeftLeg  34.0472 -3.15914 -1.91557
LeftFoot  -11.1153 0.0858785 -13.6062
LeftToes  -5.54824e-011 -8.71001e-011 8.3852e-012
338
root  -9.15416 37.6388 9.42813 -176.96 29.3058 179.394
RightUpLeg  -13.5272 -3.67666 -18.2499
RightLeg  31.2851 -4.66568 -3.28858
RightFoot  -5.3446 -1.69127 30.8685
RightToes  2.32829e-010 0 -3.6325e-017
Spine  13.6156 2.94353 -7.25862
Spine1  17.562 3.1442 -3.02221
HEad  -19.0472 26.7567 -16.5537
LeftShoulder1  0.581842 0.747443 -14.1641
LeftArm  13.8005 5.58647 -38.911
LeftForeArm  122.198 -76.2325 -130.898
LeftHand  -1.57456 -3.41678 20.8219
RightShoulder  1.0345 2.30365 10.6126
RightArm  -9.6869 -10.6157 53.4215
RightForeArm  93.2632 78.57 109.097
RightHand  -1.52682 4.57596 -17.9257
LeftUpLeg  -24.1323 -11.866 6.90101
LeftLeg  38.2567 1.42183 1.58118
LeftFoot  -14.1247 -0.253568 -13.7852
LeftToes  -5.54824e-011 -8.71001e-011 8.3852e-012
339
root  -9.69598 37.055 9.45691 -179.125 35.3146 178.539
RightUpLeg  -15.4874 -4.23023 -19.8314
RightLeg  33.9328 -3.74394 -2.94472
RightFoot  -7.66243 -1.06101 30.5742
RightToes  2.32829e-010 0 -3.6325e-017
Spine  14.3013 3.23908 -9.60234
Spine1  18.8584 2.41933 -1.08893
HEad  -22.1859 29.0367 -18.4912
LeftShoulder1  0.676573 0.275607 -14.0142
LeftArm  9.08343 -1.37279 -38.4242
LeftForeArm  108.543 -78.4581 -115.494
LeftHand  -1.86381 -3.52535 24.2083
RightShoulder  1.06489 2.4182 10.8072
RightArm  -10.4388 -14.0453 53.1937
RightForeArm  103.568 77.2957 121.358
RightHand  -1.40752 4.34704 -16.9425
LeftUpLeg  -23.3267 -9.35931 4.90221
LeftLeg  42.2633 3.88095 4.16666
LeftFoot  -16.9099 -0.575566 -13.8943
LeftToes  -5.54824e-011 -8.71001e-011 8.3852e-012
340
root  -10.2089 36.6579 9.50717 178.693 40.7563 177.646
RightUpLeg  -17.1376 -3.90484 -21.0989
RightLeg  34.9745 -1.14823 -1.12018
RightFoot  -9.35765 -0.571944 28.7785
RightToes  2.32829e-010 0 -3.6325e-017
Spine  14.4346 3.38895 -10.8121
Spine1  21.0324 2.15393 -0.429255
HEad  -25.0233 30.8056 -20.337
LeftShoulder1  0.719382 -0.0446061 -13.2551
LeftArm  4.54615 -8.73556 -39.592
LeftForeArm  83.5316 -79.671 -88.6183
LeftHand  -2.22246 -3.59625 28.4439
RightShoulder  1.05531 2.14833 11.579
RightArm  -10.1136 -15.5553 53.098
RightForeArm  108.452 76.0342 128.606
RightHand  -1.32343 4.05106 -16.44
LeftUpLeg  -22.0824 -6.43325 3.30032
LeftLeg  44.7864 5.4741 6.20688
LeftFoot  -19.1951 -0.813089 -13.4506
LeftToes  -5.54824e-011 -8.71001e-011 8.3852e-012
341
root  -10.6129 36.5451 9.56836 177.894 45.1507 177.63
RightUpLeg  -18.3206 -3.98982 -21.2498
RightLeg  33.9515 2.7061 1.69208
RightFoot  -9.9484 -0.411252 27.7811
RightToes  2.32829e-010 0 -3.6325e-017
Spine  14.1993 3.18664 -11.402
Spine1  22.4041 1.5683 0.2757
HEad  -26.6024 32.7784 -22.2338
LeftShoulder1  0.724719 -0.179597 -12.5966
LeftArm  1.68669 -14.0302 -42.169
LeftForeArm  63.0217 -78.9386 -69.4468
LeftHand  -2.54658 -3.62206 32.2962
RightShoulder  1.01699 1.80929 12.0999
RightArm  -8.68004 -16.2983 53.8809
RightForeArm  107.73 75.228 131.567
RightHand  -1.26593 3.65121 -16.4106
LeftUpLeg  -21.226 -4.32713 3.05892
LeftLeg  45.4436 6.93498 7.90446
LeftFoot  -20.0796 -0.933246 -13.7324
LeftToes  -5.54824e-011 -8.71001e-011 8.3852e-012
